<svg xmlns="http://www.w3.org/2000/svg" xmlns:xlink="http://www.w3.org/1999/xlink" width="66px" height="66px" viewBox="0 0 66 66" version="1.1" class="custom-block__image replaced-svg">
    <!-- Generator: Sketch 54.1 (76490) - https://sketchapp.com -->
    <title>ico_bandlab</title>
    <desc>Created with Sketch.</desc>
    <g id="Page-1" stroke="none" stroke-width="1" fill="none" fill-rule="evenodd">
        <g id="1" transform="translate(-396.000000, -735.000000)">
            <g id="ico_bandlab" transform="translate(396.000000, 735.000000)">
                <rect id="bound" x="0" y="0" width="65.3895275" height="65.3895275"></rect>
                <path d="M65.3895275,32.6947637 C65.3895275,50.7515933 50.7515789,65.3895275 32.6947316,65.3895275 C14.6379486,65.3895275 0,50.7515933 0,32.6947637 C0,14.6379342 14.6379486,7.10542736e-15 32.6947316,7.10542736e-15 C50.7515789,7.10542736e-15 65.3895275,14.6379342 65.3895275,32.6947637 Z M48.4420581,43.2065683 L41.5884655,29.9159152 L41.5776143,29.9159152 L39.8990171,26.4345453 L33.1524597,26.4345453 C33.1524597,26.4345453 32.7877566,26.460357 32.5703473,26.7749773 C32.3514613,27.0921659 32.4838588,27.4460175 32.4838588,27.4460175 C32.4838588,27.4460175 33.3043123,29.0636153 34.3797369,31.1867886 C36.3954919,35.1663502 39.3072735,40.9221681 39.3920926,41.1311658 C39.7496686,42.01191 39.6879002,42.711266 39.6879002,42.711266 C39.664721,44.821983 37.3316487,46.5281881 34.4544753,46.5281881 C31.5627909,46.5281881 29.2186105,44.8052246 29.2186105,42.679804 C29.2186105,40.5701144 31.1120487,38.8337955 34.3912302,38.8337955 C34.4009256,38.8325756 34.4031087,38.8283378 34.4156935,38.8283378 C35.0435222,38.8283378 35.5525655,38.3124248 35.5525655,37.6760571 C35.5525655,37.4870922 35.5076839,37.308786 35.428194,37.1515401 C35.426974,37.1491644 35.428194,37.1478802 35.428194,37.1478802 L32.4193936,31.1871739 L30.0203794,26.4345453 L28.5640712,23.5496056 C28.5640712,23.5496056 28.3955245,23.2099441 28.6522292,22.9218418 C28.8188497,22.7346748 28.9525314,22.7131008 29.1843233,22.7131008 L38.9510459,22.7131008 C38.9963128,22.626805 39.0505688,22.5443616 39.1193358,22.4700727 C39.6931011,21.849757 41.1763767,20.099184 41.3856316,19.8519181 C41.5584161,19.8021568 41.6671207,19.6849125 41.8304666,19.4978098 C42.0535262,19.2421968 42.1165145,19.0269709 42.1400789,18.8356946 C42.1636434,18.644354 42.3190916,16.5243911 42.3210179,16.277061 C42.3228799,16.0297309 42.3721919,15.7946004 41.9434732,15.3601676 C41.6127363,15.0250006 40.8815965,15.0333477 40.8815965,15.0333477 L24.8912288,15.0333477 C24.8912288,15.0333477 24.1601532,15.0250006 23.8294805,15.3601676 C23.4007618,15.7946004 23.4500095,16.0297309 23.4519358,16.277061 C23.4537978,16.5243911 23.6091819,18.644354 23.6327463,18.8356946 C23.6564392,19.0269709 23.7192991,19.2421968 23.9423587,19.4978098 C24.086121,19.6624397 24.1876343,19.7727494 24.3274158,19.830922 C24.4214167,19.9420023 26.0121128,21.8218265 26.611754,22.4700727 C27.229502,23.1379666 26.81767,24.3904123 26.81767,24.3904123 L24.1534755,29.9159152 L17.2998829,43.2065683 C17.2998829,43.2065683 16.0959775,45.423614 17.5201816,47.4792404 C18.5583654,48.9778603 19.7173892,49.7111825 22.0768511,49.7111825 L43.6648973,49.7111825 C46.0245519,49.7111825 47.1835115,48.9778603 48.2217595,47.4792404 C49.6458993,45.423614 48.4420581,43.2065683 48.4420581,43.2065683 Z M37.5838717,8.50195869 C37.5838717,7.55135593 36.8235171,6.78072882 35.8855625,6.78072882 C34.9476078,6.78072882 34.1871891,7.55135593 34.1871891,8.50195869 C34.1871891,9.45256146 34.9476078,10.2231886 35.8855625,10.2231886 C36.8235171,10.2231886 37.5838717,9.45256146 37.5838717,8.50195869 Z M32.1782787,11.1249546 C32.1782787,9.93151629 31.2236941,8.96402676 30.0461141,8.96402676 C28.8685341,8.96402676 27.9138853,9.93151629 27.9138853,11.1249546 C27.9138853,12.3183928 28.8685341,13.2858824 30.0461141,13.2858824 C31.2236941,13.2858824 32.1782787,12.3183928 32.1782787,11.1249546 Z" id="logo" fill="#DC3710"></path>
            </g>
        </g>
    </g>
</svg>