<svg viewBox="0 0 32 32" xmlns="http://www.w3.org/2000/svg"><g fill="none">
    <circle fill="#707070" cx="16" cy="16" r="15.98"/>
    <path fill="#ffffff" d="M16.54 3.95a.5.5 0 110-1.01.5.5 0 010 1zm-2.5 0a1 1 0 110 2 1 1 0 010-2zm9.65 19.3c-.52.73-1.1 1.1-2.29 1.1H10.6c-1.19 0-1.77-.37-2.29-1.1-.7-1.02-.1-2.1-.1-2.1l4.71-9.18a.89.89 0 00.1-.36.94.94 0 00-.23-.74l-1.26-1.4a.57.57 0 01-.15-.33l-.1-1.26c0-.12-.02-.23.2-.45.17-.17.53-.16.53-.16h8s.37 0 .53.16c.22.21.2.33.2.45s-.08 1.17-.1 1.26c0 .1-.04.2-.15.33l-1.36 1.46a.4.4 0 01-.19.12h-4.78c-.12 0-.19.01-.27.1-.13.15-.04.32-.04.32l.71 1.4 2.72 5.3a.57.57 0 01-.52.82c-1.64 0-2.59.86-2.59 1.9s1.18 1.89 2.62 1.89c1.45 0 2.61-.84 2.62-1.88 0 0 .03-.34-.14-.78l-3.46-6.74s-.07-.17.04-.32c.1-.16.29-.17.29-.17h3c.23 0 .45.13.56.34l4.1 7.91s.6 1.1-.11 2.1z" />
</g></svg>