<svg xmlns="http://www.w3.org/2000/svg" xml:space="preserve" viewBox="0 0 301.219 301.219"><path d="M149.365 262.736H10c-5.523 0-10 4.477-10 10v10c0 5.523 4.477 10 10 10h139.365c5.522 0 10-4.477 10-10v-10c0-5.523-4.477-10-10-10M10 229.736h120.586c5.522 0 10-4.477 10-10v-10c0-5.523-4.478-10-10-10H10c-5.523 0-10 4.477-10 10v10c0 5.523 4.477 10 10 10M10 166.736h101.805c5.522 0 10-4.477 10-10v-10c0-5.523-4.478-10-10-10H10c-5.523 0-10 4.477-10 10v10c0 5.523 4.477 10 10 10M10 96.736h83.025c5.522 0 10-4.477 10-10v-10c0-5.523-4.478-10-10-10H10c-5.523 0-10 4.477-10 10v10c0 5.523 4.477 10 10 10M10 33.736h64.244c5.522 0 10-4.477 10-10v-10c0-5.523-4.478-10-10-10H10c-5.523 0-10 4.477-10 10v10c0 5.523 4.477 10 10 10M298.29 216.877l-7.07-7.071a10 10 0 0 0-14.142 0l-34.394 34.393V18.736c0-5.523-4.477-10-10-10h-10c-5.522 0-10 4.477-10 10v225.462l-34.394-34.393a10 10 0 0 0-14.142 0l-7.07 7.071c-3.905 3.905-3.905 10.237 0 14.142l63.535 63.536a10.003 10.003 0 0 0 14.142 0l63.535-63.536c3.905-3.905 3.905-10.236 0-14.141"/></svg>