<svg xmlns="http://www.w3.org/2000/svg" xml:space="preserve" width="332.697" height="473.068"><path d="M285.321 181.955c8.793-6.139 29.39-20.519 29.39-55.351v-71.77h9.814c4.49 0 8.17-3.679 8.17-8.169v-38.5c0-4.49-3.681-8.165-8.17-8.165H8.165C3.67 0 0 3.675 0 8.165v38.5c0 4.491 3.67 8.169 8.165 8.169h9.82v73.071c0 34.499 10.502 42.576 29.074 53.89l80.745 49.203v20.984c-20.346 12.23-73.465 44.242-80.434 49.107-8.793 6.135-29.384 20.51-29.384 55.352v61.793h-9.82c-4.495 0-8.165 3.676-8.165 8.166v38.498c0 4.49 3.67 8.17 8.165 8.17h316.361c4.49 0 8.17-3.68 8.17-8.17V426.4c0-4.49-3.681-8.166-8.17-8.166h-9.814V355.13c0-34.493-10.508-42.572-29.069-53.885l-80.745-49.202v-20.987c20.332-12.225 73.452-44.234 80.422-49.101M182.54 272.859l87.802 53.5c6.734 4.109 10.333 6.373 12.001 9.002 1.991 3.164 2.963 9.627 2.963 19.768v63.104H47.388V356.44c0-19.507 9.718-26.289 16.81-31.242 5.551-3.865 54.402-33.389 85.878-52.289a14.7 14.7 0 0 0 7.135-12.611v-37.563c0-5.123-2.671-9.883-7.053-12.55l-87.54-53.339-.265-.165c-6.741-4.105-10.336-6.369-11.998-9.009-1.992-3.156-2.968-9.626-2.968-19.767v-73.07h237.918v71.77c0 19.5-9.718 26.288-16.814 31.235-5.546 3.872-54.391 33.395-85.869 52.295a14.7 14.7 0 0 0-7.134 12.601v37.563a14.71 14.71 0 0 0 7.052 12.56"/><path d="M260.879 154.234s5.291-4.619-2.801-3.299c-19.178 3.115-53.079 15.133-92.079 15.133s-57-11-82.507-11.303c-5.569-.066-5.456 3.629.937 7.391 6.386 3.758 63.772 35.681 71.671 40.08 7.896 4.389 12.417 4.05 20.786 0 12.174-5.902 83.993-48.002 83.993-48.002M84.125 397.564c-6.748 6.209-9.978 10.713 5.536 10.713h155.442c16.099 0 9.856-5.453 2.311-12.643-14.576-13.883-45.416-23.566-82.414-23.566-38.754 0-65.844 11.655-80.875 25.496"/></svg>