<?xml version="1.0"?>
<svg viewBox="0 0 30.00437 20.21244" xmlns="http://www.w3.org/2000/svg">
    <title />
    <g data-name="Layer 2" id="Layer_2">
        <g id="Interface-Solid">
            <g id="interface-solid-multimedia-shuffle-button" style="fill:ghostwhite;stroke:rgba(255,255,255,.55);stroke-miterlimit:10;">
                <path d="M29.99359,16.07133a1.25067,1.25067,0,0,0-.08984-.44483,1.22462,1.22462,0,0,0-.158-.24121,1.19232,1.19232,0,0,0-.10608-.16211l-2.81006-2.86035a1.2853,1.2853,0,0,0-1.76953-.01953,1.25787,1.25787,0,0,0-.02,1.76953l.729.74024h-4.876a4.70287,4.70287,0,0,1-4.64307-4.75,7.20518,7.20518,0,0,0-7.14307-7.25H1.25a1.25,1.25,0,0,0,0,2.5H9.10693a4.70286,4.70286,0,0,1,4.64307,4.75,7.20506,7.20506,0,0,0,7.13849,7.24975l.00116.00025h4.87268l-.72229.72949a1.27089,1.27089,0,0,0,.02,1.78027,1.25351,1.25351,0,0,0,.87988.34961,1.241,1.241,0,0,0,.88965-.36914L29.63965,16.983a1.19393,1.19393,0,0,0,.10986-.168,1.21816,1.21816,0,0,0,.1543-.23608,1.25126,1.25126,0,0,0,.087-.43042c.00061-.01587.00922-.0293.00922-.04541C30,16.09183,29.9939,16.08256,29.99359,16.07133Z" />
                <path d="M17.6333,6.35307a1.24336,1.24336,0,0,0,.69971-.21485,4.55,4.55,0,0,1,2.56006-.78515h4.88208l-.72535.74023a1.16841,1.16841,0,0,0-.35986.87988,1.2453,1.2453,0,0,0,1.25,1.23926,1.25772,1.25772,0,0,0,.88965-.36914L29.63965,4.983a1.254,1.254,0,0,0,.17163-.25977,1.20855,1.20855,0,0,0,.09125-.13794,1.22462,1.22462,0,0,0-.26288-1.36206L26.82959.36283A1.2853,1.2853,0,0,0,25.06006.3433a1.24886,1.24886,0,0,0-.01026,1.76953l.72535.74024h-4.8855l-.002.00048a7.03891,7.03891,0,0,0-3.95606,1.21436,1.25013,1.25013,0,0,0,.70166,2.28516Z" />
                <path d="M11.667,14.06791a4.55,4.55,0,0,1-2.56006.78516H1.25a1.25,1.25,0,1,0,0,2.5H9.10693a7.04035,7.04035,0,0,0,3.96143-1.21485A1.25,1.25,0,0,0,11.667,14.06791Z" />
            </g>
        </g>
    </g>
</svg>