<?xml version="1.0" encoding="UTF-8" standalone="no"?>
<!-- Uploaded to: SVG Repo, www.svgrepo.com, Generator: SVG Repo Mixer Tools -->

<svg
   width="466.7381"
   height="516.66669"
   viewBox="0 0 14.002143 15.500001"
   fill="none"
   version="1.1"
   id="svg3"
   sodipodi:docname="sort-alpha-down-svgrepo-com2.svg"
   inkscape:version="1.3 (0e150ed, 2023-07-21)"
   xmlns:inkscape="http://www.inkscape.org/namespaces/inkscape"
   xmlns:sodipodi="http://sodipodi.sourceforge.net/DTD/sodipodi-0.dtd"
   xmlns="http://www.w3.org/2000/svg"
   xmlns:svg="http://www.w3.org/2000/svg">
  <defs
     id="defs3" />
  <sodipodi:namedview
     id="namedview3"
     pagecolor="#ffffff"
     bordercolor="#666666"
     borderopacity="1.0"
     inkscape:showpageshadow="2"
     inkscape:pageopacity="0.0"
     inkscape:pagecheckerboard="0"
     inkscape:deskcolor="#d1d1d1"
     inkscape:zoom="0.295"
     inkscape:cx="233.89831"
     inkscape:cy="259.32203"
     inkscape:window-width="640"
     inkscape:window-height="452"
     inkscape:window-x="202"
     inkscape:window-y="169"
     inkscape:window-maximized="0"
     inkscape:current-layer="svg3" />
  <path
     d="m 5.2175,11.72 -1.22,1.22 V 0.75 c 0,-0.41 -0.34,-0.75 -0.75,-0.75 -0.41,0 -0.75,0.34 -0.75,0.75 v 12.19 l -1.22,-1.22 c -0.29,-0.29 -0.77,-0.29 -1.06,0 -0.29,0.29 -0.29,0.77 0,1.06 l 2.5,2.5 c 0.07,0.07 0.15,0.12 0.24,0.16 0.09,0.04 0.19,0.06 0.29,0.06 0.1,0 0.2,-0.02 0.29,-0.06 0.09,-0.04 0.17,-0.09 0.24,-0.16 l 2.5,-2.5 c 0.29,-0.29 0.29,-0.77 0,-1.06 -0.29,-0.29 -0.77,-0.29 -1.06,0 z"
     fill="#000000"
     id="path1" />
  <path
     d="m 8.9975,6.96 c 0.39,0.14 0.82,-0.06 0.96,-0.45 l 0.28,-0.77999 h 2.03 l 0.28,0.77999 c 0.11,0.31 0.4,0.5 0.71,0.5 0.08,0 0.17,-0.01 0.25,-0.04 0.39,-0.14 0.59,-0.57 0.45,-0.96 l -1.71,-4.78999 c -0.17,-0.43 -0.56,-0.71 -1,-0.71 -0.44,0 -0.83,0.28 -1,0.73 L 8.5475,6.01 c -0.14,0.39 0.06,0.82 0.45,0.96 z m 2.73,-2.72999 h -0.96 l 0.48,-1.34 z"
     fill="#000000"
     id="path2" />
  <path
     d="m 13.6675,9.21 c -0.19,-0.44 -0.59,-0.71 -1.05,-0.71 h -3.11 c -0.41,0 -0.75,0.34 -0.75,0.75 0,0.41 0.34,0.75 0.75,0.75 h 2.39 l -2.83,2.95 c -0.34,0.36 -0.43,0.88 -0.24,1.34 0.19,0.44 0.59,0.71 1.05,0.71 h 3.13 c 0.41,0 0.75,-0.34 0.75,-0.75 0,-0.41 -0.34,-0.75 -0.75,-0.75 h -2.39 l 2.82,-2.93 c 0.34,-0.36 0.44,-0.89 0.24,-1.35 z"
     fill="#000000"
     id="path3" />
</svg>
