<svg xmlns="http://www.w3.org/2000/svg" fill="none" viewBox="0 0 14.002 15.5"><path fill="#000" d="m5.218 11.72-1.22 1.22V.75c0-.41-.34-.75-.75-.75s-.75.34-.75.75v12.19l-1.22-1.22a.754.754 0 0 0-1.06 0c-.29.29-.29.77 0 1.06l2.5 2.5a.78.78 0 0 0 .53.22.776.776 0 0 0 .53-.22l2.5-2.5c.29-.29.29-.77 0-1.06a.754.754 0 0 0-1.06 0M8.998 6.96c.39.14.82-.06.96-.45l.28-.78h2.03l.28.78c.11.31.4.5.71.5.08 0 .17-.01.25-.04a.75.75 0 0 0 .45-.96l-1.71-4.79c-.17-.43-.56-.71-1-.71s-.83.28-1 .73l-1.7 4.77c-.14.39.06.82.45.96zm2.73-2.73h-.96l.48-1.34zM13.668 9.21c-.19-.44-.59-.71-1.05-.71h-3.11c-.41 0-.75.34-.75.75s.34.75.75.75h2.39l-2.83 2.95c-.34.36-.43.88-.24 1.34.19.44.59.71 1.05.71h3.13c.41 0 .75-.34.75-.75s-.34-.75-.75-.75h-2.39l2.82-2.93c.34-.36.44-.89.24-1.35z"/></svg>