<svg xmlns="http://www.w3.org/2000/svg" viewBox="0 0 305 305" style="fill:#fff;enable-background:new 0 0 305 305" xml:space="preserve">
    <path d="M305 173.726c0-41.662-16.799-79.469-43.972-107.02a7.587 7.587 0 0 0-.695-.815 7.455 7.455 0 0 0-.814-.694C231.968 38.024 194.161 21.226 152.5 21.226S73.032 38.025 45.48 65.197a7.683 7.683 0 0 0-.814.694 7.491 7.491 0 0 0-.695.815C16.799 94.257 0 132.064 0 173.726c0 40.729 15.859 79.018 44.655 107.821l.012.013.008.007.012.012a7.474 7.474 0 0 0 5.302 2.195c1.92 0 3.84-.732 5.304-2.197.125-.125.238-.258.352-.39l23.112-23.113a7.5 7.5 0 0 0-10.606-10.607l-18.036 18.036c-21.031-23.403-33.232-52.857-34.91-84.277h25.507c4.142 0 7.5-3.357 7.5-7.5s-3.358-7.5-7.5-7.5H15.207c1.744-32.272 14.668-61.618 34.957-84.229l17.987 17.987a7.477 7.477 0 0 0 5.303 2.196 7.5 7.5 0 0 0 5.303-12.803L60.771 71.389C83.383 51.1 112.728 38.176 145 36.433v25.506c0 4.143 3.358 7.5 7.5 7.5s7.5-3.357 7.5-7.5V36.433c32.272 1.743 61.617 14.668 84.229 34.957l-17.987 17.987a7.5 7.5 0 0 0 10.606 10.607l17.987-17.987c20.289 22.612 33.214 51.957 34.957 84.229h-25.506c-4.142 0-7.5 3.357-7.5 7.5s3.358 7.5 7.5 7.5h25.507c-1.678 31.42-13.878 60.875-34.909 84.278l-18.036-18.037a7.501 7.501 0 0 0-10.606 10.607l23.485 23.485a7.477 7.477 0 0 0 5.303 2.196 7.486 7.486 0 0 0 5.304-2.196C289.137 252.755 305 214.459 305 173.726z"/>
    <path d="M186.956 87.718a7.498 7.498 0 0 0-9.751 4.173l-21.673 54.1a28.513 28.513 0 0 0-3.031-.182c-10.556 0-20.091 5.847-24.886 15.259-5.012 9.839-3.728 21.595 3.432 31.445a12.208 12.208 0 0 0 2.666 2.665c5.817 4.229 12.314 6.464 18.788 6.464 10.556 0 20.092-5.847 24.886-15.259 5.012-9.839 3.728-21.594-3.427-31.437a12.206 12.206 0 0 0-2.671-2.674 36.784 36.784 0 0 0-1.665-1.123l21.505-53.681a7.5 7.5 0 0 0-4.173-9.75zm-22.936 91.856a12.876 12.876 0 0 1-11.52 7.067c-3.204 0-6.429-1.119-9.589-3.327-3.6-5.169-4.307-10.773-1.93-15.438a12.874 12.874 0 0 1 11.52-7.067c1.558 0 3.12.27 4.678.795.051.021.098.048.15.069.164.065.329.118.494.171a19.918 19.918 0 0 1 4.266 2.291c3.599 5.169 4.307 10.774 1.931 15.439z"/>
</svg>
