<svg style="enable-background:new 0 0 100 100" viewBox="0 0 100 100" xml:space="preserve" xmlns="http://www.w3.org/2000/svg">
    <path d="M39.806 72.858h-8.915a3.94 3.94 0 0 1-3.94-3.94V31.119a3.94 3.94 0 0 1 3.94-3.94h8.915a3.94 3.94 0 0 1 3.94 3.94v37.799a3.94 3.94 0 0 1-3.94 3.94zm28.303-.037h-8.915a3.94 3.94 0 0 1-3.94-3.94V31.082a3.94 3.94 0 0 1 3.94-3.94h8.915a3.94 3.94 0 0 1 3.94 3.94v37.799a3.94 3.94 0 0 1-3.94 3.94z"/>
    <path d="M40.489 27.248a3.919 3.919 0 0 1 1.257 2.871v37.799a3.94 3.94 0 0 1-3.94 3.94h-8.915c-.234 0-.46-.03-.683-.069a3.916 3.916 0 0 0 2.683 1.069h8.915a3.94 3.94 0 0 0 3.94-3.94V31.119a3.934 3.934 0 0 0-3.257-3.871zm28.303-.037a3.919 3.919 0 0 1 1.257 2.871v37.799a3.94 3.94 0 0 1-3.94 3.94h-8.915c-.234 0-.46-.03-.683-.069a3.916 3.916 0 0 0 2.683 1.069h8.915a3.94 3.94 0 0 0 3.94-3.94V31.082a3.933 3.933 0 0 0-3.257-3.871z"/>
    <path d="M39.806 72.858h-8.915a3.94 3.94 0 0 1-3.94-3.94V31.119a3.94 3.94 0 0 1 3.94-3.94h8.915a3.94 3.94 0 0 1 3.94 3.94v37.799a3.94 3.94 0 0 1-3.94 3.94zm28.303-.037h-8.915a3.94 3.94 0 0 1-3.94-3.94V31.082a3.94 3.94 0 0 1 3.94-3.94h8.915a3.94 3.94 0 0 1 3.94 3.94v37.799a3.94 3.94 0 0 1-3.94 3.94z" style="fill:#f8f8ff;stroke:rgba(255,255,255,.55);stroke-miterlimit:10"/>
</svg>
