<svg viewBox="0 0 30.004 20.212" xmlns="http://www.w3.org/2000/svg">
    <g style="fill:#f8f8ff;stroke:rgba(255,255,255,.55);stroke-miterlimit:10" data-name="Layer 2">
        <path d="M29.994 16.071a1.25 1.25 0 0 0-.09-.445 1.225 1.225 0 0 0-.158-.24 1.192 1.192 0 0 0-.106-.163l-2.81-2.86a1.285 1.285 0 0 0-1.77-.02 1.258 1.258 0 0 0-.02 1.77l.73.74h-4.877a4.703 4.703 0 0 1-4.643-4.75 7.205 7.205 0 0 0-7.143-7.25H1.25a1.25 1.25 0 0 0 0 2.5h7.857a4.703 4.703 0 0 1 4.643 4.75 7.205 7.205 0 0 0 7.138 7.25h4.874l-.722.73a1.27 1.27 0 0 0 .02 1.78 1.254 1.254 0 0 0 .88.35 1.241 1.241 0 0 0 .89-.37l2.81-2.86a1.194 1.194 0 0 0 .11-.168 1.218 1.218 0 0 0 .154-.236 1.251 1.251 0 0 0 .087-.43c0-.016.009-.03.009-.046 0-.011-.006-.02-.006-.032z"/>
        <path d="M17.633 6.353a1.243 1.243 0 0 0 .7-.215 4.55 4.55 0 0 1 2.56-.785h4.882l-.725.74a1.168 1.168 0 0 0-.36.88 1.245 1.245 0 0 0 1.25 1.24 1.258 1.258 0 0 0 .89-.37l2.81-2.86a1.254 1.254 0 0 0 .171-.26 1.209 1.209 0 0 0 .092-.138 1.225 1.225 0 0 0-.263-1.362L26.83.363a1.285 1.285 0 0 0-1.77-.02 1.249 1.249 0 0 0-.01 1.77l.725.74h-4.887a7.039 7.039 0 0 0-3.956 1.215 1.25 1.25 0 0 0 .701 2.285zm-5.966 7.715a4.55 4.55 0 0 1-2.56.785H1.25a1.25 1.25 0 1 0 0 2.5h7.857a7.04 7.04 0 0 0 3.961-1.215 1.25 1.25 0 0 0-1.401-2.07z"/>
    </g>
</svg>
