<svg xmlns="http://www.w3.org/2000/svg" viewBox="0 0 64 64" style="enable-background:new 0 0 64 64" xml:space="preserve">
    <circle cx="32" cy="32" r="31" style="fill:#ef712b"/>
    <path d="M9.8 39.2c0 .1-.1.2-.2.2s-.2-.1-.2-.2l-.3-2.5.3-2.5c.1-.2.1-.2.2-.2s.2.1.2.2l.4 2.5-.4 2.5zm1.7 1.5c0 .1-.1.2-.2.2s-.2-.1-.2-.2l-.4-4 .4-4.1c0-.1.1-.2.2-.2s.2.1.2.2l.5 4.1-.5 4zm1.9.7c0 .1-.1.2-.2.2s-.2-.1-.2-.2l-.4-4.7.4-4.9c0-.1.1-.2.2-.2s.2.1.2.2l.5 4.9-.5 4.7zm1.8.1c0 .1-.1.3-.3.3-.1 0-.3-.1-.3-.3l-.4-4.8.4-5c0-.1.1-.3.3-.3.1 0 .3.1.3.3l.5 5-.5 4.8zm1.9.1c0 .2-.2.3-.3.3-.1 0-.2-.1-.3-.3l-.4-4.9.4-4.6c0-.2.2-.3.3-.3.1 0 .2.1.3.3l.4 4.6-.4 4.9zm1.9 0c0 .2-.2.3-.4.3s-.3-.1-.3-.3l-.4-4.9.4-7.6c0-.2.2-.3.4-.3s.3.1.3.3l.4 7.6-.4 4.9zm1.8 0c0 .2-.2.4-.4.4s-.4-.2-.4-.4l-.3-4.9.3-9.3c0-.2.2-.4.4-.4s.4.2.4.4l.4 9.3-.4 4.9zm2-.1c0 .2-.2.4-.4.4s-.4-.2-.4-.4l-.3-4.8.3-10.1c0-.2.2-.4.4-.4s.4.2.4.4l.3 10.1-.3 4.8zm1.9 0c0 .3-.3.4-.5.4s-.4-.2-.4-.4l-.3-4.8.3-10.4c0-.3.3-.4.5-.4s.4.2.4.4l.3 10.4-.3 4.8zm1.9-.1c0 .3-.2.5-.5.5s-.5-.2-.5-.5l-.3-4.7.3-10.1c0-.3.2-.5.5-.5s.5.2.5.5l.3 10.1-.3 4.7zm2 0c0 .3-.2.5-.5.5s-.5-.2-.5-.5l-.2-4.7.2-9.8c0-.3.2-.5.5-.5s.5.2.5.5l.3 9.8-.3 4.7zm2-.5v.5c0 .2-.1.3-.2.4-.1.1-.3.2-.4.2-.2 0-.3-.1-.4-.2-.1-.1-.1-.2-.1-.3l-.2-4.7.2-11.5v-.1c0-.2.1-.4.3-.5.2-.1.4-.1.6 0 .2.1.3.3.3.5l.2 11.6-.3 4.1zm1.9.4c0 .3-.3.6-.6.6s-.6-.3-.6-.6l-.1-2.3-.2-2.3.3-12.6V24c0-.2.1-.4.2-.5.1-.1.2-.1.4-.1.1 0 .2 0 .3.1.2.1.3.3.3.5l.3 12.7-.3 4.6zm16.7.6H33.7c-.3 0-.6-.3-.6-.6V23.4c0-.3.1-.5.5-.7 1.1-.4 2.4-.7 3.6-.7 5.2 0 9.4 4 9.9 9 2.9-1.2 6.2.1 7.4 3 1.2 2.9-.1 6.2-3 7.4-.7.4-1.5.5-2.3.5z" style="fill:#fff"/>
</svg>
