<?xml version="1.0" encoding="UTF-8" standalone="no"?>
<svg
   width="97.775002"
   height="42.459999"
   style="fill:#ef712b"
   xml:space="preserve"
   version="1.1"
   id="svg1"
   sodipodi:docname="soundcloud-logo2.svg"
   inkscape:version="1.3 (0e150ed, 2023-07-21)"
   xmlns:inkscape="http://www.inkscape.org/namespaces/inkscape"
   xmlns:sodipodi="http://sodipodi.sourceforge.net/DTD/sodipodi-0.dtd"
   xmlns="http://www.w3.org/2000/svg"
   xmlns:svg="http://www.w3.org/2000/svg"><defs
   id="defs1" /><sodipodi:namedview
   id="namedview1"
   pagecolor="#ffffff"
   bordercolor="#666666"
   borderopacity="1.0"
   inkscape:showpageshadow="2"
   inkscape:pageopacity="0.0"
   inkscape:pagecheckerboard="0"
   inkscape:deskcolor="#d1d1d1"
   inkscape:zoom="2.4137296"
   inkscape:cx="48.887001"
   inkscape:cy="20.921979"
   inkscape:window-width="640"
   inkscape:window-height="452"
   inkscape:window-x="0"
   inkscape:window-y="25"
   inkscape:window-maximized="0"
   inkscape:current-layer="svg1" />&#10;    <path
   d="m 4.723,22.033 c -0.209,0 -0.38,0.166 -0.407,0.395 l -0.961,8.781 0.961,8.586 c 0.027,0.229 0.198,0.396 0.407,0.396 0.206,0 0.373,-0.164 0.406,-0.395 L 6.223,31.208 5.129,22.427 C 5.096,22.194 4.929,22.033 4.723,22.033 Z m -3.615,3.364 c -0.203,0 -0.365,0.156 -0.392,0.383 L 0,31.209 0.716,36.546 c 0.026,0.226 0.188,0.382 0.392,0.382 0.198,0 0.359,-0.156 0.391,-0.38 L 2.346,31.209 1.499,25.775 C 1.467,25.553 1.306,25.397 1.108,25.397 Z m 7.456,-5.086 c -0.258,0 -0.464,0.202 -0.49,0.48 L 7.161,31.209 8.074,41.246 c 0.026,0.279 0.232,0.48 0.49,0.48 0.253,0 0.459,-0.201 0.489,-0.479 L 10.089,31.208 9.053,20.79 C 9.023,20.513 8.817,20.311 8.564,20.311 Z m 3.873,-0.368 c -0.304,0 -0.551,0.242 -0.575,0.564 L 11,31.212 11.862,41.566 c 0.024,0.32 0.271,0.563 0.575,0.563 0.299,0 0.545,-0.243 0.573,-0.563 L 13.989,31.212 13.01,20.505 c -0.028,-0.32 -0.274,-0.562 -0.573,-0.562 z m 4.559,21.71 v 0.002 z m 0,-20.375 c -0.024,-0.365 -0.308,-0.644 -0.656,-0.644 -0.353,0 -0.635,0.278 -0.657,0.647 l -0.814,9.93 0.814,10.441 c 0.022,0.367 0.305,0.646 0.657,0.646 0.349,0 0.632,-0.279 0.656,-0.646 l 0.923,-10.441 z m 3.28,-6.95 a 0.754,0.754 0 0 0 -0.74,0.733 l -0.764,16.155 0.764,10.44 a 0.755,0.755 0 0 0 0.74,0.729 c 0.392,0 0.716,-0.322 0.74,-0.732 v 0.004 L 21.88,31.217 21.016,15.061 c -0.025,-0.411 -0.349,-0.733 -0.74,-0.733 z m 3.905,-3.721 a 0.836,0.836 0 0 0 -0.824,0.815 l -0.715,19.85 0.716,10.375 c 0.02,0.455 0.38,0.813 0.823,0.813 0.44,0 0.804,-0.358 0.823,-0.815 v 0.006 l 0.809,-10.379 -0.809,-19.85 a 0.836,0.836 0 0 0 -0.823,-0.815 z m 4.06,-1.794 a 0.916,0.916 0 0 0 -0.907,0.9 l -0.665,21.508 0.665,10.268 c 0.018,0.5 0.416,0.895 0.907,0.895 a 0.92,0.92 0 0 0 0.907,-0.898 v 0.006 L 29.899,31.222 29.148,9.713 c -0.021,-0.504 -0.419,-0.9 -0.907,-0.9 z M 33.26,8.99 A 0.999,0.999 0 0 0 32.271,8.005 0.997,0.997 0 0 0 31.28,8.99 l -0.616,22.231 0.617,10.204 a 0.994,0.994 0 0 0 0.99,0.978 0.997,0.997 0 0 0 0.989,-0.981 l 0.694,-10.198 z m 0,32.431 v 0.005 z M 36.332,8.492 c -0.59,0 -1.061,0.469 -1.075,1.068 l -0.566,21.665 0.568,10.105 a 1.075,1.075 0 0 0 1.073,1.064 c 0.586,0 1.057,-0.472 1.073,-1.07 v 0.008 L 38.043,31.223 37.405,9.557 A 1.077,1.077 0 0 0 36.332,8.492 Z m 4.093,0.707 a 1.16,1.16 0 0 0 -1.158,1.153 L 38.75,31.225 39.267,41.27 a 1.1570053,1.1570053 0 0 0 2.314,-0.007 v 0.008 l 0.58,-10.043 -0.58,-20.875 A 1.159,1.159 0 0 0 40.425,9.199 Z m 4.81,-3.836 a 1.22,1.22 0 0 0 -1.354,-0.01 1.257,1.257 0 0 0 -0.572,1.036 l -0.004,0.234 -0.466,24.598 0.47,9.984 c 0,0.016 0.002,0.027 0.003,0.042 a 1.248,1.248 0 0 0 1.237,1.186 c 0.337,0 0.644,-0.139 0.868,-0.363 0.225,-0.223 0.367,-0.531 0.373,-0.873 L 45.842,40.211 46.313,31.227 45.791,6.388 A 1.267,1.267 0 0 0 45.235,5.363 Z m 0.555,35.842 v -0.003 0.004 -0.009 0.005 z M 49.329,3.008 a 1.29,1.29 0 0 0 -0.673,-0.19 c -0.316,0 -0.607,0.114 -0.836,0.302 a 1.346,1.346 0 0 0 -0.49,1.019 l -0.003,0.136 -0.54,26.956 0.276,4.982 0.267,4.85 a 1.337,1.337 0 0 0 1.326,1.311 c 0.719,0 1.312,-0.594 1.322,-1.32 v 0.012 L 50.568,31.232 49.98,4.137 A 1.345,1.345 0 0 0 49.329,3.008 Z m 36.419,15.398 c -1.646,0 -3.22,0.334 -4.65,0.933 C 80.139,8.502 71.051,0 59.965,0 57.251,0 54.608,0.534 52.272,1.437 51.365,1.789 51.125,2.149 51.116,2.851 v 38.168 c 0.009,0.735 0.579,1.308 1.298,1.379 0.031,0.004 33.336,0 33.336,0 6.642,0 12.025,-5.324 12.025,-11.967 C 97.774,23.79 92.391,18.406 85.748,18.406 Z"
   id="path1" />&#10;</svg>
