<svg xmlns="http://www.w3.org/2000/svg" width="97.774" height="97.774" style="fill:#fff;enable-background:new 0 0 97.774 97.774" xml:space="preserve">
    <path d="M4.723 49.69c-.209 0-.38.166-.407.395l-.961 8.781.961 8.586c.027.229.198.396.407.396.206 0 .373-.164.406-.395l1.094-8.588-1.094-8.781c-.033-.233-.2-.394-.406-.394zm-3.615 3.364c-.203 0-.365.156-.392.383L0 58.866l.716 5.337c.026.226.188.382.392.382.198 0 .359-.156.391-.38l.847-5.339-.847-5.434c-.032-.222-.193-.378-.391-.378zm7.456-5.086c-.258 0-.464.202-.49.48l-.913 10.418.913 10.037c.026.279.232.48.49.48.253 0 .459-.201.489-.479l1.036-10.039-1.036-10.418c-.03-.277-.236-.479-.489-.479zm3.873-.368c-.304 0-.551.242-.575.564L11 58.869l.862 10.354c.024.32.271.563.575.563.299 0 .545-.243.573-.563l.979-10.354-.979-10.707c-.028-.32-.274-.562-.573-.562zm4.559 21.71v.002zm0-20.375c-.024-.365-.308-.644-.656-.644-.353 0-.635.278-.657.647l-.814 9.93.814 10.441c.022.367.305.646.657.646.349 0 .632-.279.656-.646l.923-10.441-.923-9.933zm3.28-6.95a.754.754 0 0 0-.74.733l-.764 16.155.764 10.44a.755.755 0 0 0 .74.729c.392 0 .716-.322.74-.732v.004l.864-10.44-.864-16.156c-.025-.411-.349-.733-.74-.733zm3.905-3.721a.836.836 0 0 0-.824.815l-.715 19.85.716 10.375c.02.455.38.813.823.813.44 0 .804-.358.823-.815v.006l.809-10.379-.809-19.85a.836.836 0 0 0-.823-.815zm4.06-1.794a.916.916 0 0 0-.907.9l-.665 21.508.665 10.268c.018.5.416.895.907.895a.92.92 0 0 0 .907-.898v.006l.751-10.27-.751-21.509c-.021-.504-.419-.9-.907-.9zm5.019.177a.999.999 0 0 0-.989-.985.997.997 0 0 0-.991.985l-.616 22.231.617 10.204a.994.994 0 0 0 .99.978.997.997 0 0 0 .989-.981l.694-10.198-.694-22.234zm0 32.431v.005zm3.072-32.929c-.59 0-1.061.469-1.075 1.068l-.566 21.665.568 10.105a1.075 1.075 0 0 0 1.073 1.064c.586 0 1.057-.472 1.073-1.07v.008l.638-10.109-.638-21.666a1.077 1.077 0 0 0-1.073-1.065zm4.093.707a1.16 1.16 0 0 0-1.158 1.153l-.517 20.873.517 10.045a1.157 1.157 0 0 0 2.314-.007v.008l.58-10.043-.58-20.875a1.159 1.159 0 0 0-1.156-1.154zm4.81-3.836a1.22 1.22 0 0 0-1.354-.01 1.257 1.257 0 0 0-.572 1.036l-.004.234-.466 24.598.47 9.984c0 .016.002.027.003.042a1.248 1.248 0 0 0 1.237 1.186c.337 0 .644-.139.868-.363.225-.223.367-.531.373-.873l.052-.986.471-8.984-.522-24.839a1.267 1.267 0 0 0-.556-1.025zm.555 35.842v-.003.004-.009.005zm3.539-38.197a1.29 1.29 0 0 0-.673-.19c-.316 0-.607.114-.836.302a1.346 1.346 0 0 0-.49 1.019l-.003.136-.54 26.956.276 4.982.267 4.85a1.337 1.337 0 0 0 1.326 1.311c.719 0 1.312-.594 1.322-1.32v.012l.59-9.834-.588-27.095a1.345 1.345 0 0 0-.651-1.129zm36.419 15.398c-1.646 0-3.22.334-4.65.933-.959-10.837-10.047-19.339-21.133-19.339-2.714 0-5.357.534-7.693 1.437-.907.352-1.147.712-1.156 1.414v38.168c.009.735.579 1.308 1.298 1.379.031.004 33.336 0 33.336 0 6.642 0 12.025-5.324 12.025-11.967-.001-6.641-5.384-12.025-12.027-12.025z"/>
</svg>
