<svg xmlns="http://www.w3.org/2000/svg" version="1.0" width="40" height="40" viewBox="0 0 225.68 225.687" xml:space="preserve" style="overflow:visible">
    <path d="M225.68 112.847c0 62.324-50.515 112.839-112.844 112.839C50.522 225.687 0 175.171 0 112.847 0 50.525 50.522 0 112.836 0 175.165 0 225.68 50.525 225.68 112.847z"/>
    <path d="M151.792 112.847c0 21.511-17.439 38.958-38.956 38.958-21.515 0-38.955-17.446-38.955-38.958 0-21.517 17.44-38.956 38.955-38.956 21.517 0 38.956 17.44 38.956 38.956z" style="fill:#fff"/>
    <path d="M116.866 112.847a4.03 4.03 0 0 1-4.03 4.032 4.034 4.034 0 0 1-4.029-4.032 4.03 4.03 0 1 1 8.059 0z"/>
    <path d="M20.097 66.216C30.92 44.729 48.992 27.523 71.101 17.801m136.781 136.778c-10.452 23.771-29.559 42.877-53.335 53.329" style="fill:none;stroke:#fff;stroke-width:2.5007;stroke-linecap:round;stroke-linejoin:round"/>
    <path d="M26.954 65.298a98.563 98.563 0 0 1 43.118-40.829m131.174 131.074c-9.625 19.901-25.782 36.058-45.683 45.696" style="fill:none;stroke:#fff;stroke-width:2.5007;stroke-linecap:round;stroke-linejoin:round"/>
    <path d="M31.278 68.092c9.515-17.3 24.375-31.246 42.349-39.614M197.293 151.87c-9.156 19.784-25.053 35.804-44.745 45.11" style="fill:none;stroke:#fff;stroke-width:2.5007;stroke-linecap:round;stroke-linejoin:round"/>
    <path d="M194.591 145.045c-7.587 19.257-21.783 35.187-39.797 45M34.828 72.416a88.268 88.268 0 0 1 37.608-37.595" style="fill:none;stroke:#fff;stroke-width:2.5007;stroke-linecap:round;stroke-linejoin:round"/>
    <path d="M188.86 145.892c-7.666 17.616-21.282 32.054-38.312 40.767M40.22 72.872a83.264 83.264 0 0 1 36.689-34.73m-34.058 41.33c6.779-14.2 17.759-26.01 31.324-33.834m102.26 100.241A72.002 72.002 0 0 1 149.37 174.5M50.691 77.164a71.978 71.978 0 0 1 29.116-27.915m89.314 97.73a66.168 66.168 0 0 1-25.704 24.16M57.354 77.446a66.083 66.083 0 0 1 26.804-23.848m81.766 87.631a60.555 60.555 0 0 1-21.119 22.623M62.042 80.556a60.419 60.419 0 0 1 22.109-20.631m78.523 76.648a55.434 55.434 0 0 1-21.503 23.646M64.289 86.57a55.498 55.498 0 0 1 22.265-22.272m70.343 71.265a49.737 49.737 0 0 1-19.152 20.142M69.974 87.932a49.8 49.8 0 0 1 22.76-20.406m61.331 62.281a44.78 44.78 0 0 1-21.283 22.904M73.236 92.376a44.758 44.758 0 0 1 19.127-19.13" style="fill:none;stroke:#fff;stroke-width:2.5007;stroke-linecap:round;stroke-linejoin:round"/>
    <path d="M185.226 140.644c-6.082 15.844-17.219 29.175-31.428 38.03" style="fill:none;stroke:#fff;stroke-width:2.5007;stroke-linecap:round;stroke-linejoin:round"/>
</svg>
