<?xml version="1.0" encoding="UTF-8" standalone="no"?>
<svg
   viewBox="-35.2 -41.333 235.66702 166.33299"
   version="1.1"
   id="svg1"
   sodipodi:docname="youtube2.svg"
   width="235.66701"
   height="166.33299"
   inkscape:version="1.3 (0e150ed, 2023-07-21)"
   xmlns:inkscape="http://www.inkscape.org/namespaces/inkscape"
   xmlns:sodipodi="http://sodipodi.sourceforge.net/DTD/sodipodi-0.dtd"
   xmlns="http://www.w3.org/2000/svg"
   xmlns:svg="http://www.w3.org/2000/svg">
  <defs
     id="defs1" />
  <sodipodi:namedview
     id="namedview1"
     pagecolor="#ffffff"
     bordercolor="#666666"
     borderopacity="1.0"
     inkscape:showpageshadow="2"
     inkscape:pageopacity="0.0"
     inkscape:pagecheckerboard="0"
     inkscape:deskcolor="#d1d1d1"
     inkscape:zoom="0.9516129"
     inkscape:cx="117.69492"
     inkscape:cy="83.542373"
     inkscape:window-width="640"
     inkscape:window-height="452"
     inkscape:window-x="450"
     inkscape:window-y="287"
     inkscape:window-maximized="0"
     inkscape:current-layer="svg1" />
  <path
     d="M 58.633,76.726 V 6.942 l 61.334,34.893 z m 136.43,-91.742 c -2.699,-10.162 -10.651,-18.165 -20.747,-20.881 -18.3,-4.936 -91.683,-4.936 -91.683,-4.936 0,0 -73.382,0 -91.682,4.936 -10.096,2.716 -18.048,10.719 -20.747,20.881 -4.904,18.419 -4.904,56.85 -4.904,56.85 0,0 0,38.429 4.904,56.849 2.699,10.163 10.65,18.165 20.747,20.883 18.3,4.934 91.682,4.934 91.682,4.934 0,0 73.383,0 91.683,-4.934 10.096,-2.718 18.048,-10.72 20.747,-20.883 4.904,-18.42 4.904,-56.85 4.904,-56.85 0,0 0,-38.43 -4.904,-56.849"
     fill="#ff0000"
     stroke="#000000"
     id="path1" />
</svg>
